<svg xmlns="http://www.w3.org/2000/svg" viewBox="0 0 960 640" role="img" aria-labelledby="title desc">
  <title id="title">Waiting room doorway and chairs</title>
  <desc id="desc">A calm abstract waiting room mark with two chairs, a doorway, and a small heart.</desc>
  <rect width="960" height="640" rx="0" fill="#fff7ea"/>
  <path d="M96 486h768" stroke="#6f4a8e" stroke-width="12" stroke-linecap="round"/>
  <rect x="360" y="92" width="240" height="392" rx="28" fill="#f0dff6" stroke="#6f4a8e" stroke-width="12"/>
  <path d="M414 484V152h132v332" fill="#fffaf2" stroke="#6f4a8e" stroke-width="10"/>
  <circle cx="518" cy="318" r="10" fill="#9c6fb4"/>
  <path d="M480 216c-18-28-60-17-60 17 0 33 60 68 60 68s60-35 60-68c0-34-42-45-60-17z" fill="#d86f64"/>
  <g fill="#d9c7e8" stroke="#4f355f" stroke-width="10" stroke-linejoin="round">
    <path d="M150 362h154c22 0 40 18 40 40v82H110v-82c0-22 18-40 40-40z"/>
    <path d="M656 362h154c22 0 40 18 40 40v82H616v-82c0-22 18-40 40-40z"/>
  </g>
  <g stroke="#4f355f" stroke-width="10" stroke-linecap="round">
    <path d="M150 484v54M304 484v54M656 484v54M810 484v54"/>
    <path d="M132 362v-58c0-23 19-42 42-42h106c23 0 42 19 42 42v58"/>
    <path d="M638 362v-58c0-23 19-42 42-42h106c23 0 42 19 42 42v58"/>
  </g>
</svg>
